<!-- Social Items  heeader-->

<svg width="31" height="31" viewBox="0 0 31 31" fill="none"
    xmlns="http://www.w3.org/2000/svg">
    <g id= "figmaIcon-heeader">
        <path d="M8.46744 4.26963C9.13359 3.60348 10.0371 3.22925 10.9791 3.22925H14.5312V10.3334H10.9791C10.0371 10.3334 9.13359 9.95917 8.46744 9.29303C7.8013 8.62688 7.42706 7.7234 7.42706 6.78133C7.42706 5.83926 7.8013 4.93577 8.46744 4.26963Z" fill="white"/>
        <path d="M20.0208 10.3334H16.4687V3.22925H20.0208C20.4873 3.22925 20.9492 3.32113 21.3801 3.49963C21.8111 3.67814 22.2027 3.93979 22.5325 4.26963C22.8624 4.59947 23.124 4.99105 23.3025 5.42201C23.481 5.85296 23.5729 6.31486 23.5729 6.78133C23.5729 7.24779 23.481 7.70969 23.3025 8.14065C23.124 8.57161 22.8624 8.96319 22.5325 9.29303C22.2027 9.62287 21.8111 9.88451 21.3801 10.063C20.9492 10.2415 20.4873 10.3334 20.0208 10.3334Z" fill="white"/>
        <path d="M20.0208 12.2709C19.5543 12.2709 19.0924 12.3628 18.6615 12.5413C18.2305 12.7198 17.839 12.9815 17.5091 13.3113C17.1793 13.6411 16.9176 14.0327 16.7391 14.4637C16.5606 14.8946 16.4687 15.3565 16.4687 15.823C16.4687 16.2895 16.5606 16.7514 16.7391 17.1823C16.9176 17.6133 17.1793 18.0049 17.5091 18.3347C17.839 18.6645 18.2305 18.9262 18.6615 19.1047C19.0924 19.2832 19.5543 19.3751 20.0208 19.3751C20.4873 19.3751 20.9492 19.2832 21.3801 19.1047C21.8111 18.9262 22.2027 18.6645 22.5325 18.3347C22.8624 18.0049 23.124 17.6133 23.3025 17.1823C23.481 16.7514 23.5729 16.2895 23.5729 15.823C23.5729 15.3565 23.481 14.8946 23.3025 14.4637C23.124 14.0327 22.8624 13.6411 22.5325 13.3113C22.2027 12.9815 21.8111 12.7198 21.3801 12.5413C20.9492 12.3628 20.4873 12.2709 20.0208 12.2709Z" fill="white"/>
        <path d="M8.46744 22.353C9.13359 21.6868 10.0371 21.3126 10.9791 21.3126H14.5312V24.8647C14.5312 25.8067 14.157 26.7102 13.4908 27.3764C12.8247 28.0425 11.9212 28.4167 10.9791 28.4167C10.0371 28.4167 9.13359 28.0425 8.46744 27.3764C7.8013 26.7102 7.42706 25.8067 7.42706 24.8647C7.42706 23.9226 7.8013 23.0191 8.46744 22.353Z" fill="white"/>
        <path d="M10.9791 12.2709C10.0371 12.2709 9.13359 12.6452 8.46744 13.3113C7.8013 13.9774 7.42706 14.8809 7.42706 15.823C7.42706 16.7651 7.8013 17.6686 8.46744 18.3347C9.13359 19.0008 10.0371 19.3751 10.9791 19.3751H14.5312V12.2709H10.9791Z" fill="white"/>
\
    </g>
    <g id = "githubIcon-heeader">
        <path fill-rule="evenodd" clip-rule="evenodd" d="M16 1C7.52835 1 0.666687 7.86167 0.666687 16.3333C0.666687 23.1183 5.05585 28.8492 11.1509 30.8808C11.9175 31.015 12.205 30.555 12.205 30.1525C12.205 29.7883 12.1859 28.5808 12.1859 27.2967C8.33335 28.0058 7.33669 26.3575 7.03002 25.495C6.85752 25.0542 6.11002 23.6933 5.45835 23.3292C4.92169 23.0417 4.15502 22.3325 5.43919 22.3133C6.64669 22.2942 7.50919 23.425 7.79669 23.885C9.17669 26.2042 11.3809 25.5525 12.2625 25.15C12.3967 24.1533 12.7992 23.4825 13.24 23.0992C9.82835 22.7158 6.26335 21.3933 6.26335 15.5283C6.26335 13.8608 6.85752 12.4808 7.83502 11.4075C7.68169 11.0242 7.14502 9.4525 7.98835 7.34417C7.98835 7.34417 9.27252 6.94167 12.205 8.91583C13.4317 8.57083 14.735 8.39833 16.0384 8.39833C17.3417 8.39833 18.645 8.57083 19.8717 8.91583C22.8042 6.9225 24.0884 7.34417 24.0884 7.34417C24.9317 9.4525 24.395 11.0242 24.2417 11.4075C25.2192 12.4808 25.8134 13.8417 25.8134 15.5283C25.8134 21.4125 22.2292 22.7158 18.8175 23.0992C19.3734 23.5783 19.8525 24.4983 19.8525 25.9358C19.8525 27.9867 19.8334 29.635 19.8334 30.1525C19.8334 30.555 20.1209 31.0342 20.8875 30.8808C26.9442 28.8492 31.3334 23.0992 31.3334 16.3333C31.3334 7.86167 24.4717 1 16 1Z" fill="white"/>
    </g>

    <g id="linkedinIcon-heeader">
        <rect width="32" height="32" rx="3" fill="white"/>
        <path d="M6.33333 2.5C4.76853 2.5 3.5 3.76853 3.5 5.33333C3.5 6.89814 4.76853 8.16667 6.33333 8.16667C7.89814 8.16667 9.16667 6.89814 9.16667 5.33333C9.16667 3.76853 7.89814 2.5 6.33333 2.5Z" fill="black"/>
        <path d="M3.66667 10.5C3.57462 10.5 3.5 10.5746 3.5 10.6667V28C3.5 28.092 3.57462 28.1667 3.66667 28.1667H9C9.09205 28.1667 9.16667 28.092 9.16667 28V10.6667C9.16667 10.5746 9.09205 10.5 9 10.5H3.66667Z" fill="black"/>
        <path d="M12.3333 10.5C12.2413 10.5 12.1667 10.5746 12.1667 10.6667V28C12.1667 28.092 12.2413 28.1667 12.3333 28.1667H17.6667C17.7587 28.1667 17.8333 28.092 17.8333 28V18.6667C17.8333 18.0036 18.0967 17.3677 18.5656 16.8989C19.0344 16.4301 19.6703 16.1667 20.3333 16.1667C20.9964 16.1667 21.6323 16.4301 22.1011 16.8989C22.5699 17.3677 22.8333 18.0036 22.8333 18.6667V28C22.8333 28.092 22.908 28.1667 23 28.1667H28.3333C28.4254 28.1667 28.5 28.092 28.5 28V16.507C28.5 13.2713 25.6859 10.74 22.4665 11.0327C21.4736 11.1229 20.4919 11.3697 19.5753 11.7626L17.8333 12.5091V10.6667C17.8333 10.5746 17.7587 10.5 17.6667 10.5H12.3333Z" fill="black"/>
    </g>

    <!-- SOCIAL ITEMS FOOTER -->
    <g id="figmaIcon-footer">
        <path d="M19.1201 9.64099C20.6243 8.1368 22.6644 7.29175 24.7916 7.29175H32.8125V23.3334H24.7916C22.6644 23.3334 20.6243 22.4884 19.1201 20.9842C17.6159 19.48 16.7708 17.4398 16.7708 15.3126C16.7708 13.1853 17.6159 11.1452 19.1201 9.64099Z" fill="white"/>
        <path d="M45.2083 23.3334H37.1875V7.29175H45.2083C46.2616 7.29175 47.3046 7.49921 48.2777 7.9023C49.2509 8.30538 50.1351 8.89619 50.8799 9.64099C51.6247 10.3858 52.2155 11.27 52.6186 12.2431C53.0217 13.2163 53.2291 14.2593 53.2291 15.3126C53.2291 16.3659 53.0217 17.4089 52.6186 18.382C52.2155 19.3551 51.6247 20.2394 50.8799 20.9842C50.1351 21.729 49.2509 22.3198 48.2777 22.7229C47.3046 23.1259 46.2616 23.3334 45.2083 23.3334Z" fill="white"/>
        <path d="M45.2083 27.7084C44.155 27.7084 43.112 27.9159 42.1389 28.319C41.1657 28.722 40.2815 29.3129 39.5367 30.0577C38.7919 30.8025 38.2011 31.6867 37.798 32.6598C37.3949 33.6329 37.1875 34.6759 37.1875 35.7292C37.1875 36.7826 37.3949 37.8256 37.798 38.7987C38.2011 39.7718 38.7919 40.656 39.5367 41.4008C40.2815 42.1456 41.1657 42.7364 42.1389 43.1395C43.112 43.5426 44.155 43.7501 45.2083 43.7501C46.2616 43.7501 47.3046 43.5426 48.2777 43.1395C49.2509 42.7364 50.1351 42.1456 50.8799 41.4008C51.6247 40.656 52.2155 39.7718 52.6186 38.7987C53.0217 37.8255 53.2291 36.7825 53.2291 35.7292C53.2291 34.6759 53.0217 33.6329 52.6186 32.6598C52.2155 31.6867 51.6247 30.8025 50.8799 30.0577C50.1351 29.3129 49.2509 28.722 48.2777 28.319C47.3046 27.9159 46.2616 27.7084 45.2083 27.7084Z" fill="white"/>
        <path d="M19.1201 50.4743C20.6243 48.9701 22.6644 48.1251 24.7916 48.1251H32.8125V56.1459C32.8125 58.2732 31.9674 60.3133 30.4632 61.8175C28.959 63.3217 26.9189 64.1667 24.7916 64.1667C22.6644 64.1667 20.6243 63.3217 19.1201 61.8175C17.6159 60.3133 16.7708 58.2732 16.7708 56.1459C16.7708 54.0187 17.6159 51.9785 19.1201 50.4743Z" fill="white"/>
        <path d="M24.7916 27.7084C22.6644 27.7084 20.6243 28.5535 19.1201 30.0577C17.6159 31.5619 16.7708 33.602 16.7708 35.7292C16.7708 37.8565 17.6159 39.8966 19.1201 41.4008C20.6243 42.905 22.6644 43.7501 24.7916 43.7501H32.8125V27.7084H24.7916Z" fill="white"/>
    </g>
    <g id="githubIcon-footer">
        <path fill-rule="evenodd" clip-rule="evenodd" d="M36 2.25C16.9387 2.25 1.5 17.6887 1.5 36.75C1.5 52.0162 11.3756 64.9106 25.0894 69.4819C26.8144 69.7837 27.4613 68.7487 27.4613 67.8431C27.4613 67.0238 27.4181 64.3069 27.4181 61.4175C18.75 63.0131 16.5075 59.3044 15.8175 57.3637C15.4294 56.3719 13.7475 53.31 12.2812 52.4906C11.0737 51.8437 9.34875 50.2481 12.2381 50.205C14.955 50.1619 16.8956 52.7062 17.5425 53.7412C20.6475 58.9594 25.6069 57.4931 27.5906 56.5875C27.8925 54.345 28.7981 52.8356 29.79 51.9731C22.1138 51.1106 14.0925 48.135 14.0925 34.9387C14.0925 31.1869 15.4294 28.0819 17.6287 25.6669C17.2837 24.8044 16.0763 21.2681 17.9738 16.5244C17.9738 16.5244 20.8631 15.6188 27.4613 20.0606C30.2213 19.2844 33.1538 18.8962 36.0863 18.8962C39.0188 18.8962 41.9513 19.2844 44.7113 20.0606C51.3094 15.5756 54.1987 16.5244 54.1987 16.5244C56.0962 21.2681 54.8887 24.8044 54.5437 25.6669C56.7431 28.0819 58.08 31.1437 58.08 34.9387C58.08 48.1781 50.0156 51.1106 42.3394 51.9731C43.59 53.0512 44.6681 55.1212 44.6681 58.3556C44.6681 62.97 44.625 66.6787 44.625 67.8431C44.625 68.7487 45.2719 69.8269 46.9969 69.4819C60.6244 64.9106 70.5 51.9731 70.5 36.75C70.5 17.6887 55.0612 2.25 36 2.25Z" fill="white"/>
    </g>

    <g id="linkedinIcon-footer">
        <rect width="72" height="72" rx="3" fill="white"/>
        <path d="M14.25 5.625C10.7292 5.625 7.875 8.47918 7.875 12C7.875 15.5208 10.7292 18.375 14.25 18.375C17.7708 18.375 20.625 15.5208 20.625 12C20.625 8.47918 17.7708 5.625 14.25 5.625Z" fill="black"/>
        <path d="M8.25 23.625C8.04289 23.625 7.875 23.7929 7.875 24V63C7.875 63.2071 8.04289 63.375 8.25 63.375H20.25C20.4571 63.375 20.625 63.2071 20.625 63V24C20.625 23.7929 20.4571 23.625 20.25 23.625H8.25Z" fill="black"/>
        <path d="M27.75 23.625C27.5429 23.625 27.375 23.7929 27.375 24V63C27.375 63.2071 27.5429 63.375 27.75 63.375H39.75C39.9571 63.375 40.125 63.2071 40.125 63V42C40.125 40.5082 40.7176 39.0774 41.7725 38.0225C42.8274 36.9676 44.2582 36.375 45.75 36.375C47.2418 36.375 48.6726 36.9676 49.7275 38.0225C50.7824 39.0774 51.375 40.5082 51.375 42V63C51.375 63.2071 51.5429 63.375 51.75 63.375H63.75C63.9571 63.375 64.125 63.2071 64.125 63V37.1408C64.125 29.8605 57.7932 24.165 50.5495 24.8235C48.3156 25.0266 46.1069 25.5819 44.0444 26.4658L40.125 28.1456V24C40.125 23.7929 39.9571 23.625 39.75 23.625H27.75Z" fill="black"/>
    </g>

    <!-- LOGO -->
    <g id="logo">
        <path d="M48.0001 24.5C48.0001 29.9368 46.1149 35.2055 42.6658 39.4082C39.2167 43.611 34.4171 46.4878 29.0847 47.5485C23.7523 48.6091 18.2171 47.7881 13.4222 45.2252C8.62737 42.6622 4.86949 38.5161 2.78889 33.4931C0.7083 28.4701 0.433729 22.8811 2.01196 17.6783C3.5902 12.4756 6.92358 7.98102 11.4442 4.96047C15.9647 1.93991 21.3928 0.580255 26.8035 1.11316C32.2141 1.64606 37.2726 4.03856 41.1171 7.88299L38.5486 10.4515C35.2984 7.20129 31.0218 5.1786 26.4474 4.72807C21.8731 4.27754 17.284 5.42703 13.4622 7.9807C9.64038 10.5344 6.82224 14.3342 5.48795 18.7327C4.15367 23.1313 4.3858 27.8564 6.14479 32.103C7.90379 36.3496 11.0808 39.8549 15.1345 42.0217C19.1883 44.1884 23.8679 44.8826 28.376 43.9858C32.8842 43.0891 36.942 40.657 39.8579 37.1039C42.7739 33.5508 44.3677 29.0965 44.3677 24.5H48.0001Z" fill="white"/>
        <path d="M16.0158 39.8057C12.4747 37.8429 9.72376 34.7129 8.23168 30.9492C6.73961 27.1854 6.59872 23.0208 7.83303 19.1648C9.06734 15.3088 11.6005 12.0001 15.0008 9.8024C18.4012 7.60473 22.4583 6.65406 26.481 7.11239C30.5037 7.57072 34.243 9.40968 37.0619 12.3159C39.8807 15.2222 41.6046 19.0159 41.9399 23.0508C42.2751 27.0856 41.201 31.1118 38.9005 34.4435C36.6 37.7751 33.2155 40.206 29.3236 41.322L28.578 38.7218C31.8683 37.7783 34.7297 35.7231 36.6746 32.9065C38.6195 30.0898 39.5276 26.6859 39.2442 23.2747C38.9607 19.8636 37.5033 16.6563 35.1202 14.1992C32.737 11.7422 29.5757 10.1875 26.1748 9.79998C22.7739 9.4125 19.3439 10.2162 16.4691 12.0742C13.5943 13.9322 11.4528 16.7295 10.4092 19.9894C9.36572 23.2494 9.48483 26.7703 10.7463 29.9523C12.0077 33.1343 14.3334 35.7805 17.3272 37.4399L16.0158 39.8057Z" fill="white"/>
        <path d="M24.5001 12C27.392 12 30.1945 13.0027 32.43 14.8374C34.6655 16.672 36.1957 19.225 36.7599 22.0614C37.3241 24.8977 36.8873 27.842 35.5241 30.3925C34.1608 32.9429 31.9554 34.9418 29.2836 36.0485C26.6118 37.1552 23.6389 37.3012 20.8715 36.4618C18.1041 35.6223 15.7134 33.8492 14.1067 31.4446C12.5 29.0401 11.7768 26.1528 12.0603 23.2748C12.3437 20.3968 13.6163 17.7061 15.6612 15.6612L17.0274 17.0274C15.2986 18.7562 14.2227 21.031 13.9831 23.4642C13.7434 25.8973 14.3549 28.3383 15.7132 30.3712C17.0715 32.4041 19.0927 33.9031 21.4324 34.6128C23.772 35.3225 26.2854 35.1991 28.5442 34.2634C30.803 33.3278 32.6676 31.6379 33.8201 29.4817C34.9726 27.3254 35.3419 24.8363 34.8649 22.4383C34.3879 20.0404 33.0942 17.882 31.2043 16.3309C29.3143 14.7799 26.945 13.9321 24.5001 13.9321L24.5001 12Z" fill="white"/>
        <path d="M17.0301 20.4442C17.9684 18.716 19.477 17.3666 21.2987 16.626C23.1204 15.8853 25.1426 15.7993 27.0206 16.3824C28.8987 16.9656 30.5165 18.1819 31.5983 19.8241C32.6801 21.4663 33.159 23.4328 32.9535 25.3886C32.7479 27.3443 31.8706 29.1683 30.471 30.5497C29.0714 31.9311 27.2361 32.7845 25.2778 32.9644C23.3195 33.1444 21.3594 32.6397 19.7315 31.5365C18.1036 30.4333 16.9086 28.7998 16.3501 26.9142L17.7273 26.5063C18.1914 28.0732 19.1845 29.4307 20.5373 30.3475C21.8901 31.2643 23.519 31.6836 25.1464 31.5341C26.7737 31.3846 28.2989 30.6754 29.462 29.5274C30.6251 28.3794 31.3542 26.8637 31.525 25.2384C31.6958 23.6132 31.2978 21.979 30.3988 20.6143C29.4998 19.2495 28.1554 18.2388 26.5947 17.7542C25.034 17.2695 23.3535 17.3411 21.8397 17.9566C20.3258 18.5721 19.0721 19.6934 18.2924 21.1296L17.0301 20.4442Z" fill="white"/>
        <path d="M28.2197 27.0327C27.6337 27.8933 26.7675 28.524 25.7687 28.8175C24.7698 29.1111 23.7001 29.0491 22.7417 28.6423C21.7834 28.2356 20.9958 27.5091 20.513 26.5866C20.0303 25.6642 19.8823 24.603 20.0943 23.5837C20.3063 22.5644 20.8652 21.6502 21.6757 20.9968C22.4862 20.3433 23.4982 19.9912 24.5393 20.0002C25.5803 20.0093 26.586 20.3791 27.385 21.0466C28.184 21.714 28.7269 22.6379 28.921 23.6607L28.0934 23.8178C27.9356 22.9865 27.4944 22.2356 26.845 21.6931C26.1955 21.1505 25.3781 20.85 24.5319 20.8426C23.6858 20.8352 22.8632 21.1215 22.2044 21.6526C21.5456 22.1837 21.0914 22.9268 20.9191 23.7552C20.7467 24.5837 20.867 25.4463 21.2594 26.196C21.6517 26.9458 22.2919 27.5363 23.0709 27.8669C23.8498 28.1976 24.7193 28.2479 25.5312 28.0093C26.3431 27.7708 27.0471 27.2581 27.5234 26.5586L28.2197 27.0327Z" fill="white"/>
        <path d="M23.7068 22.1292C24.2553 21.9457 24.8504 21.958 25.3909 22.1641C25.9313 22.3702 26.3835 22.7573 26.6705 23.2595C26.9575 23.7616 27.0615 24.3477 26.9648 24.918C26.8681 25.4882 26.5767 26.0073 26.1402 26.3868C25.7037 26.7662 25.1491 26.9826 24.5709 26.999C23.9928 27.0154 23.4268 26.8308 22.9695 26.4767C22.5122 26.1226 22.1918 25.6209 22.0629 25.0571C21.934 24.4932 22.0046 23.9021 22.2627 23.3845L23.1394 23.8216C22.9825 24.1364 22.9395 24.4959 23.0179 24.8388C23.0963 25.1817 23.2911 25.4868 23.5693 25.7021C23.8474 25.9174 24.1916 26.0297 24.5431 26.0197C24.8947 26.0097 25.232 25.8782 25.4975 25.6474C25.7629 25.4166 25.9402 25.101 25.999 24.7542C26.0578 24.4074 25.9945 24.051 25.82 23.7456C25.6454 23.4402 25.3704 23.2048 25.0418 23.0795C24.7131 22.9541 24.3512 22.9466 24.0176 23.0582L23.7068 22.1292Z" fill="white"/>
        <circle cx="24.5001" cy="24.5" r="0.5" transform="rotate(-180 24.5001 24.5)" fill="white"/>
    </g>
</svg>
